<?xml version="1.0" standalone="no"?>
<!DOCTYPE svg PUBLIC "-//W3C//DTD SVG 1.1//EN" "http://www.w3.org/Graphics/SVG/1.1/DTD/svg11.dtd">
<svg width="89.253918mm" height="188.33432100000002mm"
 viewBox="0 0 89.253918 188.33432100000002"
 xmlns="http://www.w3.org/2000/svg" version="1.1"
 xmlns:xlink="http://www.w3.org/1999/xlink">
<desc>Output from Flights of Ideas SVG Sketchup Plugin</desc>

  <path id="face0-cut"
 style="fill:none;stroke:#0000FF;stroke-width:1;stroke-miterlimit:4;stroke-dasharray:none;stroke-linejoin:round;stroke-linecap:round"
        d="M 49.11755171578753,175.334321 L 62.87674301048553,175.334321 L 62.87674301048553,178.334321 L 65.87674301048551,178.334321 L 65.87674301048551,175.334321 L 76.25391799999998,175.334321 L 76.25391799999998,142.55997995010847 L 79.25391799999997,142.55997995010847 L 79.25391799999998,139.55997995010847 L 76.25391799999997,139.55997995010847 L 76.253918,111.89843244353335 L 79.25391799999997,111.89843244353335 L 79.25391799999997,108.89843244353337 L 76.25391799999997,108.89843244353337 L 76.253918,68.24435727512835 L 79.25391799999997,68.24435727512835 L 79.253918,65.24435727512835 L 76.253918,65.24435727512835 L 76.25391799999998,31.856988978237496 L 79.25391799999998,31.856988978237496 L 79.25391799999998,28.856988978237496 L 76.25391799999997,28.856988978237467 L 76.25391799999998,12.999999999999943 L 67.28598328733769,13.000000000000028 L 67.28598328733767,10.0 L 64.28598328733767,10.0 L 64.28598328733767,12.999999999999972 L 51.16091166523378,13.000000000000028 L 51.16091166523376,10.0 L 48.160911665233755,10.0 L 48.160911665233755,12.999999999999972 L 43.948604384336655,12.999999999999943 L 43.948604384336655,16.08922768770836 L 46.21160438433665,16.08922768770836 L 46.21160438433665,21.24522768770842 L 43.948604384336655,21.245227687708365 L 43.94860438433667,27.96279624656526 L 38.94860438433665,27.96279624656526 L 38.94860438433666,21.245227687708365 L 36.685604384336656,21.245227687708365 L 36.68560438433666,16.089227687708387 L 38.948604384336655,16.089227687708302 L 38.94860438433667,12.999999999999972 L 33.63762987787082,12.999999999999972 L 33.637629877870836,10.0 L 30.637629877870808,10.0 L 30.63762987787083,12.999999999999972 L 13.0,12.999999999999972 L 13.000000000000014,32.26469016924651 L 10.000000000000014,32.264690169246535 L 10.0,35.264690169246535 L 12.999999999999986,35.26469016924651 L 13.0,56.17273792462851 L 10.0,56.17273792462851 L 10.000000000000014,59.17273792462848 L 13.000000000000014,59.172737924628535 L 13.000000000000014,80.87512770069995 L 10.0,80.87512770069992 L 10.0,83.87512770069995 L 13.000000000000014,83.87512770069992 L 13.000000000000014,105.12350439129293 L 10.000000000000014,105.1235043912929 L 10.000000000000014,108.12350439129291 L 12.999999999999986,108.12350439129294 L 13.0,131.1245799677148 L 10.0,131.12457996771477 L 10.0,134.1245799677148 L 13.000000000000014,134.1245799677148 L 13.0,175.334321 L 26.558775857893764,175.334321 L 26.558775857893764,178.33432100000002 L 29.558775857893757,178.334321 L 29.558775857893757,175.334321 L 46.11755171578753,175.334321 L 46.11755171578753,178.334321 L 49.11755171578753,178.334321 L 49.11755171578753,175.334321 M 61.71517997259272,50.52138784656546 L 62.04149545314287,50.49999999999997 L 62.367810933693015,50.52138784656546 L 62.68854306589918,50.58518543427732 L 62.998204034055576,50.69030116872176 L 63.29149545314288,50.83493649053892 L 63.563399025664665,51.016616649271896 L 63.809262406109255,51.23223304703359 L 64.02487880387095,51.47809642747819 L 64.20655896260396,51.74999999999994 L 64.35119428442107,52.04329141908724 L 64.45631001886552,52.352952387243676 L 64.52010760657741,52.673684519449836 L 64.54149545314287,52.99999999999997 L 64.5201076065774,53.32631548055011 L 64.45631001886554,53.647047612756296 L 64.35119428442108,53.956708580912704 L 64.20655896260396,54.25 L 64.02487880387096,54.52190357252178 L 63.809262406109255,54.76776695296638 L 63.56339902566467,54.983383350728104 L 63.29149545314288,55.16506350946105 L 62.998204034055604,55.30969883127818 L 62.68854306589918,55.41481456572265 L 62.367810933693,55.47861215343451 L 62.04149545314287,55.49999999999997 L 61.71517997259274,55.47861215343451 L 61.394447840386576,55.41481456572265 L 61.08478687223016,55.30969883127818 L 60.79149545314287,55.16506350946108 L 60.519591880621064,54.983383350728076 L 60.2737285001765,54.767766952966355 L 60.05811210241479,54.52190357252178 L 59.87643194368179,54.25 L 59.73179662186466,53.95670858091273 L 59.62668088742021,53.647047612756296 L 59.562883299708346,53.32631548055011 L 59.54149545314288,52.99999999999997 L 59.56288329970836,52.673684519449864 L 59.62668088742021,52.352952387243676 L 59.73179662186464,52.04329141908724 L 59.87643194368178,51.74999999999997 L 60.05811210241478,51.47809642747819 L 60.2737285001765,51.23223304703362 L 60.519591880621086,51.016616649271896 L 60.79149545314286,50.834936490538894 L 61.08478687223015,50.69030116872176 L 61.394447840386576,50.58518543427732 L 61.71517997259272,50.52138784656546 M 62.367810933693,137.81293315343453 L 62.041495453142865,137.834321 L 61.71517997259273,137.81293315343453 L 61.39444784038656,137.74913556572267 L 61.084786872230154,137.64401983127823 L 60.791495453142865,137.4993845094611 L 60.519591880621064,137.3177043507281 L 60.273728500176496,137.10208795296637 L 60.05811210241478,136.8562245725218 L 59.87643194368177,136.584321 L 59.731796621864646,136.29102958091272 L 59.6266808874202,135.9813686127563 L 59.56288329970834,135.66063648055012 L 59.54149545314286,135.334321 L 59.562883299708346,135.00800551944988 L 59.62668088742019,134.6872733872437 L 59.731796621864646,134.37761241908726 L 59.87643194368177,134.084321 L 60.05811210241478,133.8124174274782 L 60.273728500176496,133.56655404703363 L 60.519591880621064,133.3509376492719 L 60.791495453142865,133.16925749053888 L 61.08478687223013,133.0246221687218 L 61.39444784038656,132.91950643427734 L 61.715179972592736,132.85570884656548 L 62.041495453142865,132.83432100000002 L 62.367810933692994,132.85570884656548 L 62.688543065899175,132.91950643427734 L 62.99820403405559,133.02462216872178 L 63.29149545314286,133.16925749053888 L 63.563399025664665,133.3509376492719 L 63.80926240610924,133.56655404703363 L 64.02487880387095,133.81241742747818 L 64.20655896260395,134.084321 L 64.35119428442107,134.37761241908726 L 64.45631001886552,134.6872733872437 L 64.5201076065774,135.00800551944988 L 64.54149545314286,135.334321 L 64.5201076065774,135.66063648055012 L 64.45631001886554,135.98136861275628 L 64.35119428442107,136.29102958091272 L 64.20655896260395,136.584321 L 64.02487880387093,136.8562245725218 L 63.80926240610924,137.10208795296637 L 63.56339902566467,137.3177043507281 L 63.291495453142865,137.4993845094611 L 62.998204034055604,137.64401983127823 L 62.68854306589917,137.74913556572267 L 62.367810933693,137.81293315343453 "
  />
</svg>
