<?xml version="1.0" standalone="no"?>
<!DOCTYPE svg PUBLIC "-//W3C//DTD SVG 1.1//EN" "http://www.w3.org/Graphics/SVG/1.1/DTD/svg11.dtd">
<svg width="188.33432103517657mm" height="90.00000305240096mm"
 viewBox="0 0 188.33432103517657 90.00000305240096"
 xmlns="http://www.w3.org/2000/svg" version="1.1"
 xmlns:xlink="http://www.w3.org/1999/xlink">
<desc>Output from Flights of Ideas SVG Sketchup Plugin</desc>

  <path id="face0-cut"
 style="fill:none;stroke:#0000FF;stroke-width:1;stroke-miterlimit:4;stroke-dasharray:none;stroke-linejoin:round;stroke-linecap:round"
        d="M 132.16158305409198,13.000001347149464 L 129.16158305409198,13.000001347149464 L 129.16158305114567,10.000001350095808 L 107.45919327704073,10.000001355217385 L 107.45919327802054,13.000001347149464 L 104.45919327802054,13.000001347149464 L 104.45919327731256,10.000001353686912 L 83.21081658864497,10.00000132728487 L 83.21081658742756,13.000001347149478 L 80.21081658742756,13.000001347149478 L 80.21081658891681,10.000001321360159 L 76.29742269749394,10.000001312814078 L 76.29742270747195,19.301562977561822 L 67.76545330097929,19.30156300146843 L 67.76545329100128,10.000001290975064 L 57.20974101457915,10.000001257870473 L 57.20974101100569,13.000001347149478 L 54.20974101100569,13.000001347149478 L 54.20974101485099,10.000001247233364 L 12.999999986299898,10.000001046090034 L 12.999999999728153,22.517877009496438 L 10.0,22.51787701960722 L 10.000000003218169,25.51787698555753 L 13.000000002946315,25.517876977098872 L 13.000000019849061,41.27470319838668 L 10.000000020120915,41.27470320392491 L 10.000000023339084,44.27470319933732 L 13.00000002306723,44.27470319402156 L 13.000000039520181,59.61221882818253 L 10.000000039792027,59.61221883280812 L 10.000000043010196,62.61221883105383 L 13.00000004273835,62.61221882651336 L 13.000000061390665,80.00000149418102 L 31.541999664962628,80.0000030468037 L 31.541999661744462,77.00000312141546 L 34.54199966147262,77.00000312742591 L 34.54199966469079,80.00000305240096 L 56.95636328051212,80.00000149758571 L 56.956363277293946,77.00000150085577 L 59.95636327702213,77.00000149957972 L 59.95636328024032,80.00000149622272 L 86.75517082455308,80.0000016452922 L 86.75517082133487,77.00000165698444 L 89.75517082106305,77.00000165742719 L 89.75517082428124,80.00000164557107 L 114.69782115449328,80.00000187195499 L 114.69782115127512,77.00000189567712 L 117.6978211510033,77.00000189766817 L 117.69782115422146,80.00000187371282 L 139.53717975315723,80.00000133931104 L 139.53717974993907,77.00000133931451 L 142.53717974966725,77.00000133617169 L 142.53717975288544,80.0000013361649 L 175.334321046681,80.00000130335778 L 175.3343210354484,69.52892860873189 L 178.33432103517657,69.52892860594335 L 178.33432103195838,66.52892860613491 L 175.33432103223026,66.52892860889932 L 175.33432101258708,48.21746664670555 L 178.33432101231523,48.217466644177044 L 178.33432100909704,45.217466644687825 L 175.33432100936892,45.21746664715213 L 175.33432099215227,29.168022638872067 L 178.33432099188042,29.168022637156078 L 178.33432098866226,26.168022639878195 L 175.33432098893408,26.16802264125193 L 175.33432097159024,10.000001244539305 L 156.069630770515,10.0 L 156.0696309395564,13.000001347149464 L 153.06963095822135,13.000001347149464 L 153.0696307707869,10.000000040853422 L 132.1615830508738,10.000001347149471 L 132.16158305409198,13.000001347149464 M 29.088847131686286,33.61219103473392 L 32.08884713141444,33.612191028836556 L 32.088847134632616,36.61219102324309 L 29.088847134904455,36.61219102879998 L 29.088847131686286,33.61219103473392 M 54.64861742385622,36.61219098366826 L 51.64861742412805,36.61219098870567 L 51.648617420909886,33.61219099232634 L 54.64861742063803,33.612190987024114 L 54.64861742385622,36.61219098366826 M 89.9059533480922,33.61219093063914 L 92.90595334782034,33.61219092634595 L 92.90595335103853,36.61219092548526 L 89.90595335131037,36.61219092964185 L 89.9059533480922,33.61219093063914 M 128.59562347252967,33.61219088134225 L 131.59562347225784,33.612190878069576 L 131.595623475476,36.612190878069406 L 128.59562347574786,36.61219088133516 L 128.59562347252967,33.61219088134225 "
  />
</svg>
