<?xml version="1.0" standalone="no"?>
<!DOCTYPE svg PUBLIC "-//W3C//DTD SVG 1.1//EN" "http://www.w3.org/Graphics/SVG/1.1/DTD/svg11.dtd">
<svg width="89.34405099999998mm" height="95.00613050498393mm"
 viewBox="0 0 89.34405099999998 95.00613050498393"
 xmlns="http://www.w3.org/2000/svg" version="1.1"
 xmlns:xlink="http://www.w3.org/1999/xlink">
<desc>Output from Flights of Ideas SVG Sketchup Plugin</desc>

  <path id="face0-cut"
 style="fill:none;stroke:#0000FF;stroke-width:1;stroke-miterlimit:4;stroke-dasharray:none;stroke-linejoin:round;stroke-linecap:round"
        d="M 76.3410967389965,10.0 L 10.00184137512747,10.000000000000014 L 10.000000000000014,27.524005904319694 L 13.000000000000014,27.524005904319694 L 13.000000000000014,30.52400590431968 L 10.000000000000014,30.524005904319708 L 10.0,46.28083218288772 L 13.0,46.28083218288776 L 13.000000000000014,49.28083218288774 L 10.000000000000014,49.28083218288776 L 10.000000000000014,64.61834783058586 L 13.000000000000028,64.61834783058586 L 13.000000000000014,67.61834783058585 L 10.0,67.61834783058583 L 10.000000000000028,84.99999912723412 L 26.247465690860047,85.00613050498393 L 26.247465690860032,82.00613050498393 L 29.247465690860032,82.00613050498393 L 29.247465690860032,85.00613050498393 L 45.49493138172007,85.00613050498393 L 45.49493138172006,82.00613050498391 L 48.49493138172007,82.00613050498393 L 48.494931381720065,85.00613050498391 L 64.38975267065919,85.00613050498391 L 64.38975267065922,82.00613050498393 L 67.38975267065922,82.00613050498393 L 67.38975267065922,85.00613050498391 L 76.34405099999996,84.99999912723409 L 76.34405099999998,53.5684657894636 L 79.34405099999996,53.56846578946361 L 79.34405099999998,50.5684657894636 L 76.34405099999998,50.5684657894636 L 76.34405099999998,29.271679158572624 L 79.34405099999996,29.271679158572624 L 79.34405099999996,26.27167915857261 L 76.34405099999998,26.27167915857261 L 76.3410967389965,10.0 M 38.37788002817542,38.61832003529552 L 41.377880028175426,38.61832003529552 L 41.37788002817542,41.618320035295525 L 38.377880028175426,41.61832003529551 L 38.37788002817542,38.61832003529552 M 24.887630812436456,38.61832003529552 L 27.887630812436463,38.61832003529552 L 27.887630812436463,41.61832003529553 L 24.887630812436456,41.6183200352955 L 24.887630812436456,38.61832003529552 M 26.648908857893773,18.006130504983958 L 26.648908857893773,15.006130504983929 L 29.648908857893765,15.006821020685976 L 29.64890885789376,18.0061305049839 L 26.648908857893773,18.006130504983958 M 46.207684715787536,18.00613050498393 L 46.207684715787536,15.006130504983958 L 49.207684715787536,15.006130504983929 L 49.207684715787536,18.006130504983943 L 46.207684715787536,18.00613050498393 M 62.96687601048551,15.006130504983929 L 65.96576816248835,15.006130504983929 L 65.9668760104855,18.006130504983943 L 62.966876010485514,18.006130504983943 L 62.96687601048551,15.006130504983929 "
  />
</svg>
