<?xml version="1.0" standalone="no"?>
<!DOCTYPE svg PUBLIC "-//W3C//DTD SVG 1.1//EN" "http://www.w3.org/Graphics/SVG/1.1/DTD/svg11.dtd">
<svg width="60.67991400000001mm" height="188.334321mm"
 viewBox="0 0 60.67991400000001 188.334321"
 xmlns="http://www.w3.org/2000/svg" version="1.1"
 xmlns:xlink="http://www.w3.org/1999/xlink">
<desc>Output from Flights of Ideas SVG Sketchup Plugin</desc>

  <path id="face0-cut"
 style="fill:none;stroke:#0000FF;stroke-width:1;stroke-miterlimit:4;stroke-dasharray:none;stroke-linejoin:round;stroke-linecap:round"
        d="M 13.000000000000007,13.0 L 13.000000000000007,56.738697528625096 L 10.00000000000001,56.738697528625096 L 10.000000000000007,59.738697528625096 L 13.00000000000001,59.738697528625096 L 13.00000000000001,95.42836765656838 L 10.000000000000018,95.42836765656838 L 10.00000000000001,98.42836765656838 L 13.00000000000001,98.42836765656838 L 13.00000000000001,133.68570358721732 L 10.00000000000001,133.68570358721732 L 10.0,136.68570358721732 L 13.00000000000001,136.68570358721732 L 13.000000000000018,156.24547387848517 L 10.00000000000001,156.24547387848517 L 10.00000000000001,159.24547387848511 L 13.000000000000018,159.24547387848511 L 13.000000000000018,175.334321 L 24.797497812436404,175.334321 L 24.797497812436404,178.334321 L 27.79749781243641,178.334321 L 27.797497812436404,175.334321 L 38.28774702817545,175.334321 L 38.28774702817543,178.334321 L 41.28774702817544,178.334321 L 41.28774702817545,175.334321 L 50.67991400000001,175.334321 L 50.67991400000001,13.0 L 43.54843271066272,13.0 L 43.54843271066272,10.0 L 40.548432710662716,10.000000000000028 L 40.548432710662716,13.0 L 28.047265585471507,13.0 L 28.047265585471507,10.0 L 25.0472655854715,10.0 L 25.0472655854715,13.0 L 13.000000000000007,13.0 "
  />
</svg>
