<?xml version="1.0" standalone="no"?>
<!DOCTYPE svg PUBLIC "-//W3C//DTD SVG 1.1//EN" "http://www.w3.org/Graphics/SVG/1.1/DTD/svg11.dtd">
<svg width="89.344051mm" height="188.334321mm"
 viewBox="0 0 89.344051 188.334321"
 xmlns="http://www.w3.org/2000/svg" version="1.1"
 xmlns:xlink="http://www.w3.org/1999/xlink">
<desc>Output from Flights of Ideas SVG Sketchup Plugin</desc>

  <path id="face0-cut"
 style="fill:none;stroke:#0000FF;stroke-width:1;stroke-miterlimit:4;stroke-dasharray:none;stroke-linejoin:round;stroke-linecap:round"
        d="M 36.63250568896882,172.20788955885692 L 34.369505688968815,172.20788955885692 L 34.369505688968815,167.0518895588569 L 36.63250568896882,167.0518895588569 L 36.63250568896882,161.33432100000002 L 41.632505688968834,161.33432100000002 L 41.63250568896882,167.0518895588569 L 43.895505688968825,167.0518895588569 L 43.895505688968825,172.20788955885692 L 41.63250568896882,172.20788955885692 L 41.63250568896882,175.334321 L 49.2881490826522,175.334321 L 49.2881490826522,178.334321 L 52.288149082652225,178.334321 L 52.288149082652225,175.334321 L 61.641916665737895,175.334321 L 61.641916665737895,178.334321 L 64.6419166657379,178.33432099999996 L 64.6419166657379,175.33432099999996 L 76.344051,175.33432100000005 L 76.34405100000002,123.29823355567339 L 79.344051,123.2982335556734 L 79.344051,120.29823355567339 L 76.344051,120.29823355567339 L 76.344051,95.49621112302617 L 79.344051,95.49621112302617 L 79.344051,92.49621112302616 L 76.34405100000002,92.49621112302617 L 76.34405100000002,65.4788026751452 L 79.344051,65.4788026751452 L 79.344051,62.4788026751452 L 76.344051,62.4788026751452 L 76.34405100000002,31.585103430459668 L 79.344051,31.585103430459668 L 79.344051,28.585103430459675 L 76.344051,28.585103430459675 L 76.34405100000002,13.000000000000043 L 67.38975267065923,13.000000000000043 L 67.38975267065926,10.0 L 64.38975267065926,10.000000000000028 L 64.38975267065923,13.000000000000043 L 48.494931381720065,13.000000000000021 L 48.49493138172009,10.0 L 45.49493138172009,10.0 L 45.494931381720065,13.000000000000021 L 29.247465690860054,13.000000000000021 L 29.247465690860054,10.0 L 26.247465690860068,10.000000000000028 L 26.24746569086004,13.000000000000021 L 13.000000000000014,13.000000000000043 L 13.000000000000014,31.54199982009291 L 10.000000000000028,31.54199982009291 L 10.000000000000014,34.54199982009291 L 13.000000000000014,34.54199982009291 L 13.000000000000028,56.9563632778934 L 10.000000000000014,56.9563632778934 L 10.000000000000028,59.956363277893395 L 13.000000000000014,59.956363277893395 L 13.000000000000028,86.75517085590344 L 10.000000000000028,86.75517085590346 L 10.000000000000028,89.75517085590346 L 13.000000000000014,89.75517085590344 L 13.000000000000014,114.69782121634134 L 10.000000000000028,114.69782121634134 L 10.000000000000028,117.69782121634137 L 13.000000000000028,117.69782121634137 L 13.000000000000014,139.5371797032325 L 10.000000000000014,139.53717970323254 L 10.0,142.53717970323257 L 13.000000000000014,142.53717970323254 L 13.000000000000014,175.334321 L 30.97686229528543,175.334321 L 30.97686229528543,178.334321 L 33.97686229528543,178.334321 L 33.97686229528543,175.334321 L 36.63250568896882,175.334321 L 36.63250568896882,172.20788955885692 "
  />
</svg>
