<?xml version="1.0" standalone="no"?>
<!DOCTYPE svg PUBLIC "-//W3C//DTD SVG 1.1//EN" "http://www.w3.org/Graphics/SVG/1.1/DTD/svg11.dtd">
<svg width="89.44752101356342mm" height="95.02184993875801mm"
 viewBox="0 0 89.44752101356342 95.02184993875801"
 xmlns="http://www.w3.org/2000/svg" version="1.1"
 xmlns:xlink="http://www.w3.org/1999/xlink">
<desc>Output from Flights of Ideas SVG Sketchup Plugin</desc>

  <path id="face0-cut"
 style="fill:none;stroke:#0000FF;stroke-width:1;stroke-miterlimit:4;stroke-dasharray:none;stroke-linejoin:round;stroke-linecap:round"
        d="M 76.44752101356339,10.0 L 64.64191666573788,10.0 L 64.64191666573788,13.0 L 61.64191666573789,13.0 L 61.64191666573789,10.0 L 52.28814908265223,10.0 L 52.28814908265223,13.0 L 49.28814908265223,13.0 L 49.28814908265223,10.0 L 41.130524538950105,10.0 L 41.297569198429926,10.249999999999687 L 41.44220452024706,10.543291419087495 L 41.547320254691506,10.852952387243732 L 41.61111784240336,11.173684519449893 L 41.632505688968834,11.500000000000028 L 41.61111784240336,11.826315480550221 L 41.547320254691506,12.147047612756268 L 41.44220452024705,12.456708580912732 L 41.29756919842993,12.750000000000028 L 41.115889039696924,13.021903572521808 L 40.90027264193521,13.267766952966383 L 40.65440926149064,13.483383350728076 L 40.38250568896884,13.665063509461106 L 40.089214269881566,13.80969883127824 L 39.779553301725144,13.914814565722622 L 39.45882116951897,13.978612153434568 L 39.13250568896884,13.999999999999972 L 38.80619020841871,13.978612153434511 L 38.48545807621254,13.914814565722708 L 38.175797108056116,13.80969883127824 L 37.88250568896884,13.66506350946105 L 37.61060211644704,13.483383350728133 L 37.36473873600247,13.267766952966326 L 37.14912233824076,13.021903572521808 L 36.96744217950774,12.75 L 36.82280685769063,12.45670858091276 L 36.71769112324617,12.147047612756353 L 36.65389353553432,11.826315480550193 L 36.63250568896884,11.499999999999858 L 36.65389353553432,11.173684519449864 L 36.71769112324617,10.852952387243818 L 36.82280685769063,10.543291419087069 L 36.96744217950774,10.250000000000057 L 37.13448683898757,10.0 L 37.14911623409316,10.0 L 33.97686229528541,10.0 L 33.9768622952854,12.999999999999915 L 30.9768622952854,13.0 L 30.976862295285407,10.0 L 10.0,10.0 L 10.0,20.471072695092886 L 12.999999999999993,20.471072695092857 L 12.999999999999993,23.47107269509283 L 10.0,23.47107269509283 L 10.00000000000001,41.78253465892712 L 12.999999999999982,41.78253465892709 L 12.999999999999993,44.78253465892712 L 10.0,44.78253465892715 L 10.0,60.831978672411026 L 12.999999999999982,60.831978672411026 L 12.999999999999982,63.831978672411 L 10.00000000000001,63.831978672411026 L 10.0,84.99999999999997 L 33.708970020563584,84.99996468272667 L 39.521925677048166,84.99996468272667 L 39.54071853435538,80.0 L 39.37367387487555,79.74999999999994 L 39.229038553058444,79.45670858091273 L 39.123922818614,79.1470476127563 L 39.06012523090213,78.82631548055014 L 39.03873738433665,78.49999999999997 L 39.06012523090213,78.17368451944986 L 39.123922818613984,77.85295238724368 L 39.22903855305844,77.54329141908727 L 39.373673874875585,77.24999999999997 L 39.555354033608566,76.97809642747816 L 39.7709704313703,76.73223304703362 L 40.01683381181487,76.5166166492719 L 40.288737384336656,76.3349364905389 L 40.58202880342394,76.19030116872179 L 40.89168977158037,76.08518543427732 L 41.212421903786534,76.02138784656546 L 41.538737384336656,76.0 L 41.86505286488679,76.02138784656546 L 42.18578499709296,76.08518543427732 L 42.495445965249395,76.19030116872179 L 42.78873738433666,76.3349364905389 L 43.06064095685847,76.5166166492719 L 43.30650433730304,76.73223304703362 L 43.52212073506476,76.97809642747816 L 43.70380089379777,77.24999999999997 L 43.84843621561487,77.54329141908727 L 43.95355195005934,77.85295238724373 L 44.01734953777121,78.17368451944986 L 44.03873738433667,78.49999999999997 L 44.01734953777118,78.82631548055014 L 43.95355195005935,79.1470476127563 L 43.84843621561488,79.45670858091273 L 43.70380089379777,79.75 L 43.53675623431793,80.0 L 43.55991513673531,84.99994636623623 L 43.54527963748214,85.02184993875801 L 48.274203567651156,84.99994636623623 L 76.44752101356339,84.99999999999997 L 76.44752101356339,55.11355781625923 L 79.44752101356342,55.11355781625923 L 79.4475210135634,52.11355781625923 L 76.44752101356339,52.11355781625923 L 76.4475210135634,29.33101348491553 L 79.4475210135634,29.33101348491553 L 79.4475210135634,26.33101348491553 L 76.4475210135634,26.33101348491553 L 76.44752101356339,10.0 M 43.638565710662746,56.38781046968839 L 40.63856571066276,56.38781046968842 L 40.638565710662746,53.38781046968842 L 43.63856571066276,53.38781046968842 L 43.638565710662746,56.38781046968839 M 25.137398585471466,56.38781046968839 L 25.13739858547148,53.38781046968842 L 28.137398585471473,53.38781046968839 L 28.137398585471484,56.38781046968839 L 25.137398585471466,56.38781046968839 M 33.72776287787081,80.0 L 30.727762877870795,80.0 L 30.72776287787081,77.0 L 33.727762877870816,77.0 L 33.72776287787081,80.0 M 51.25104466523379,79.9999874295645 L 48.259729275474164,79.9999874295645 L 48.251044665233785,77.0 L 51.251044665233785,77.0 L 51.25104466523379,79.9999874295645 M 67.37611628733768,80.0 L 64.3761162873377,80.0 L 64.37611628733768,77.0 L 67.37611628733768,77.0 L 67.37611628733768,80.0 M 70.80577122409073,37.77228000779152 L 70.54471883965064,37.78939028504391 L 70.28366645521052,37.77228000779152 L 70.02708074944559,37.72124193762204 L 69.77935197492044,37.637149350066466 L 69.54471883965064,37.521441092612775 L 69.3271959816332,37.376096965626374 L 69.13050527727754,37.203603847416986 L 68.95801215906815,37.006913143061354 L 68.81266803208175,36.78939028504391 L 68.69695977462806,36.554757149774105 L 68.61286718707251,36.30702837524893 L 68.561829116903,36.05044266948403 L 68.54471883965064,35.78939028504391 L 68.561829116903,35.52833790060379 L 68.61286718707251,35.271752194838854 L 68.69695977462806,35.02402342031374 L 68.81266803208175,34.789390285043936 L 68.95801215906815,34.57186742702646 L 69.13050527727754,34.37517672267083 L 69.3271959816332,34.20268360446144 L 69.54471883965064,34.05733947747504 L 69.77935197492044,33.94163122002135 L 70.02708074944559,33.857538632465776 L 70.28366645521052,33.80650056229629 L 70.54471883965064,33.789390285043936 L 70.80577122409073,33.80650056229629 L 71.06235692985567,33.857538632465776 L 71.31008570438081,33.94163122002135 L 71.54471883965064,34.05733947747504 L 71.76224169766806,34.20268360446144 L 71.95893240202372,34.37517672267083 L 72.13142552023311,34.57186742702646 L 72.27676964721951,34.789390285043936 L 72.3924779046732,35.02402342031374 L 72.47657049222877,35.271752194838854 L 72.52760856239826,35.52833790060379 L 72.54471883965061,35.78939028504391 L 72.52760856239826,36.05044266948403 L 72.47657049222877,36.30702837524893 L 72.3924779046732,36.554757149774105 L 72.27676964721951,36.78939028504391 L 72.13142552023311,37.006913143061354 L 71.95893240202372,37.203603847416986 L 71.76224169766806,37.376096965626374 L 71.54471883965064,37.521441092612775 L 71.31008570438081,37.637149350066466 L 71.06235692985567,37.72124193762204 L 70.80577122409073,37.77228000779152 M 70.80577122409073,59.049506807791516 L 70.54471883965064,59.0666170850439 L 70.28366645521052,59.049506807791516 L 70.02708074944559,58.99846873762206 L 69.77935197492047,58.91437615006649 L 69.54471883965064,58.7986678926128 L 69.3271959816332,58.653323765626396 L 69.13050527727754,58.48083064741698 L 68.95801215906815,58.28413994306135 L 68.81266803208175,58.0666170850439 L 68.69695977462806,57.83198394977407 L 68.61286718707251,57.584255175248956 L 68.561829116903,57.32766946948402 L 68.54471883965064,57.0666170850439 L 68.561829116903,56.80556470060378 L 68.61286718707251,56.548978994838876 L 68.69695977462808,56.30125022031373 L 68.81266803208175,56.0666170850439 L 68.95801215906815,55.849094227026484 L 69.13050527727754,55.652403522670824 L 69.3271959816332,55.479910404461435 L 69.54471883965064,55.334566277475005 L 69.77935197492044,55.218858020021315 L 70.02708074944559,55.13476543246577 L 70.28366645521052,55.08372736229629 L 70.54471883965064,55.0666170850439 L 70.80577122409073,55.08372736229629 L 71.06235692985567,55.13476543246577 L 71.31008570438081,55.218858020021344 L 71.54471883965064,55.334566277475005 L 71.76224169766806,55.479910404461435 L 71.95893240202372,55.652403522670824 L 72.13142552023311,55.849094227026484 L 72.27676964721951,56.0666170850439 L 72.3924779046732,56.30125022031373 L 72.47657049222877,56.548978994838876 L 72.52760856239826,56.80556470060378 L 72.54471883965061,57.0666170850439 L 72.52760856239826,57.32766946948399 L 72.47657049222877,57.58425517524893 L 72.3924779046732,57.83198394977407 L 72.27676964721951,58.0666170850439 L 72.13142552023311,58.28413994306135 L 71.95893240202372,58.48083064741698 L 71.76224169766809,58.653323765626396 L 71.54471883965064,58.7986678926128 L 71.31008570438081,58.91437615006649 L 71.06235692985567,58.998468737622034 L 70.80577122409073,59.049506807791516 M 70.28366645521052,23.167887162296296 L 70.54471883965064,23.15077688504391 L 70.80577122409073,23.167887162296296 L 71.06235692985567,23.21892523246578 L 71.31008570438081,23.303017820021324 L 71.54471883965064,23.418726077475014 L 71.76224169766806,23.564070204461444 L 71.95893240202372,23.736563322670833 L 72.13142552023311,23.933254027026493 L 72.27676964721951,24.15077688504391 L 72.3924779046732,24.385410020313742 L 72.47657049222877,24.633138794838857 L 72.52760856239826,24.88972450060379 L 72.54471883965061,25.15077688504391 L 72.52760856239826,25.411829269484002 L 72.47657049222877,25.668414975248965 L 72.3924779046732,25.916143749774108 L 72.27676964721951,26.15077688504391 L 72.13142552023311,26.368299743061357 L 71.95893240202372,26.56499044741699 L 71.76224169766806,26.737483565626405 L 71.54471883965064,26.882827692612807 L 71.31008570438081,26.998535950066497 L 71.06235692985567,27.08262853762207 L 70.80577122409073,27.133666607791525 L 70.54471883965064,27.15077688504391 L 70.28366645521052,27.133666607791525 L 70.02708074944559,27.08262853762207 L 69.77935197492044,26.998535950066497 L 69.54471883965064,26.88282769261278 L 69.3271959816332,26.737483565626405 L 69.13050527727754,26.56499044741699 L 68.95801215906815,26.368299743061357 L 68.81266803208175,26.15077688504391 L 68.69695977462806,25.91614374977408 L 68.61286718707251,25.668414975248965 L 68.561829116903,25.41182926948403 L 68.54471883965064,25.15077688504391 L 68.561829116903,24.88972450060382 L 68.61286718707251,24.633138794838857 L 68.69695977462806,24.385410020313742 L 68.81266803208175,24.15077688504391 L 68.95801215906815,23.933254027026493 L 69.13050527727754,23.736563322670804 L 69.3271959816332,23.564070204461444 L 69.54471883965064,23.418726077475014 L 69.77935197492044,23.303017820021324 L 70.02708074944559,23.21892523246578 L 70.28366645521052,23.167887162296296 M 70.28366645521052,12.529273762296299 L 70.54471883965064,12.512163485043914 L 70.80577122409073,12.529273762296299 L 71.06235692985567,12.580311832465782 L 71.31008570438081,12.664404420021356 L 71.54471883965064,12.780112677475017 L 71.76224169766806,12.925456804461447 L 71.95893240202372,13.097949922670836 L 72.13142552023311,13.294640627026467 L 72.27676964721951,13.512163485043914 L 72.3924779046732,13.746796620313717 L 72.47657049222877,13.99452539483886 L 72.52760856239826,14.251111100603822 L 72.54471883965061,14.512163485043914 L 72.52760856239826,14.773215869484005 L 72.47657049222877,15.02980157524894 L 72.3924779046732,15.27753034977411 L 72.27676964721951,15.512163485043914 L 72.13142552023311,15.72968634306136 L 71.95893240202372,15.926377047416992 L 71.76224169766806,16.09887016562638 L 71.54471883965064,16.24421429261281 L 71.31008570438081,16.35992255006647 L 71.06235692985567,16.444015137622046 L 70.80577122409073,16.49505320779153 L 70.54471883965064,16.512163485043914 L 70.28366645521052,16.49505320779153 L 70.02708074944559,16.444015137622046 L 69.77935197492044,16.35992255006647 L 69.54471883965064,16.24421429261281 L 69.3271959816332,16.09887016562638 L 69.13050527727754,15.926377047416992 L 68.95801215906815,15.72968634306136 L 68.81266803208175,15.512163485043914 L 68.69695977462806,15.27753034977411 L 68.61286718707251,15.029801575248968 L 68.561829116903,14.773215869484005 L 68.54471883965064,14.512163485043914 L 68.561829116903,14.251111100603822 L 68.61286718707251,13.99452539483886 L 68.69695977462806,13.746796620313717 L 68.81266803208175,13.512163485043914 L 68.95801215906815,13.294640627026467 L 69.13050527727754,13.097949922670836 L 69.3271959816332,12.925456804461447 L 69.54471883965064,12.780112677475017 L 69.77935197492044,12.664404420021356 L 70.02708074944559,12.580311832465782 L 70.28366645521052,12.529273762296299 M 70.28366645521052,44.44511396229629 L 70.54471883965064,44.428003685043905 L 70.80577122409073,44.44511396229629 L 71.06235692985567,44.49615203246577 L 71.31008570438081,44.58024462002135 L 71.54471883965064,44.69595287747504 L 71.76224169766806,44.84129700446144 L 71.95893240202372,45.01379012267083 L 72.13142552023311,45.21048082702649 L 72.27676964721951,45.428003685043905 L 72.3924779046732,45.662636820313736 L 72.47657049222877,45.91036559483885 L 72.52760856239826,46.16695130060381 L 72.54471883965061,46.428003685043905 L 72.52760856239826,46.689056069483996 L 72.47657049222877,46.94564177524896 L 72.3924779046732,47.1933705497741 L 72.27676964721951,47.428003685043905 L 72.13142552023311,47.64552654306135 L 71.95893240202372,47.84221724741701 L 71.76224169766806,48.0147103656264 L 71.54471883965064,48.1600544926128 L 71.31008570438081,48.27576275006649 L 71.06235692985567,48.35985533762204 L 70.80577122409073,48.41089340779155 L 70.54471883965064,48.428003685043905 L 70.28366645521052,48.41089340779152 L 70.02708074944562,48.35985533762204 L 69.77935197492047,48.27576275006649 L 69.54471883965064,48.1600544926128 L 69.3271959816332,48.01471036562637 L 69.13050527727754,47.84221724741701 L 68.95801215906815,47.64552654306135 L 68.81266803208175,47.428003685043905 L 68.69695977462808,47.1933705497741 L 68.61286718707251,46.94564177524896 L 68.561829116903,46.689056069484025 L 68.54471883965064,46.428003685043905 L 68.561829116903,46.16695130060381 L 68.61286718707251,45.91036559483885 L 68.69695977462806,45.662636820313736 L 68.81266803208175,45.428003685043905 L 68.95801215906815,45.21048082702649 L 69.13050527727754,45.01379012267083 L 69.3271959816332,44.84129700446144 L 69.54471883965064,44.69595287747504 L 69.77935197492044,44.58024462002135 L 70.02708074944559,44.49615203246577 L 70.28366645521052,44.44511396229629 M 70.28366645521052,65.72234076229628 L 70.54471883965064,65.70523048504393 L 70.80577122409073,65.72234076229628 L 71.06235692985567,65.7733788324658 L 71.31008570438081,65.85747142002137 L 71.54471883965064,65.97317967747506 L 71.76224169766806,66.11852380446146 L 71.95893240202372,66.29101692267082 L 72.13142552023311,66.48770762702648 L 72.27676964721951,66.70523048504393 L 72.3924779046732,66.93986362031373 L 72.47657049222877,67.18759239483887 L 72.52760856239826,67.4441781006038 L 72.54471883965061,67.70523048504393 L 72.52760856239826,67.96628286948402 L 72.47657049222877,68.22286857524895 L 72.3924779046732,68.4705973497741 L 72.27676964721951,68.7052304850439 L 72.13142552023311,68.92275334306137 L 71.95893240202372,69.119444047417 L 71.76224169766809,69.29193716562636 L 71.54471883965064,69.43728129261277 L 71.31008570438081,69.55298955006646 L 71.0623569298557,69.63708213762203 L 70.80577122409073,69.68812020779157 L 70.54471883965064,69.7052304850439 L 70.28366645521055,69.68812020779154 L 70.02708074944562,69.63708213762203 L 69.77935197492044,69.55298955006646 L 69.54471883965064,69.43728129261277 L 69.3271959816332,69.29193716562636 L 69.13050527727756,69.119444047417 L 68.95801215906815,68.92275334306137 L 68.81266803208177,68.7052304850439 L 68.69695977462806,68.4705973497741 L 68.61286718707251,68.22286857524895 L 68.561829116903,67.96628286948402 L 68.54471883965064,67.70523048504393 L 68.561829116903,67.4441781006038 L 68.61286718707251,67.18759239483887 L 68.69695977462808,66.93986362031373 L 68.81266803208177,66.70523048504393 L 68.95801215906818,66.48770762702648 L 69.13050527727756,66.29101692267082 L 69.3271959816332,66.11852380446146 L 69.54471883965064,65.97317967747506 L 69.77935197492047,65.85747142002137 L 70.02708074944559,65.77337883246577 L 70.28366645521052,65.72234076229628 "
  />
</svg>
