<?xml version="1.0" standalone="no"?>
<!DOCTYPE svg PUBLIC "-//W3C//DTD SVG 1.1//EN" "http://www.w3.org/Graphics/SVG/1.1/DTD/svg11.dtd">
<svg width="188.34747724260666mm" height="95.00000000000004mm"
 viewBox="0 0 188.34747724260666 95.00000000000004"
 xmlns="http://www.w3.org/2000/svg" version="1.1"
 xmlns:xlink="http://www.w3.org/1999/xlink">
<desc>Output from Flights of Ideas SVG Sketchup Plugin</desc>

  <path id="face0-cut"
 style="fill:none;stroke:#0000FF;stroke-width:1;stroke-miterlimit:4;stroke-dasharray:none;stroke-linejoin:round;stroke-linecap:round"
        d="M 178.3474772426066,39.886442183740755 L 178.34747724260666,10.0 L 10.0,10.000000000000256 L 10.000000000000028,26.265548653588283 L 12.999999999999972,26.265548653588723 L 12.999999999999943,29.265548653588738 L 10.000000000000028,29.265548653588567 L 10.000000000000028,50.56233528447993 L 12.999999999999943,50.562335284479474 L 12.999999999999943,53.56233528447963 L 10.0,53.56233528447983 L 10.000000000000028,85.00000000000004 L 28.598259673066337,84.99999999999996 L 28.598259673066337,82.00000000000004 L 31.598259673066337,82.00000000000004 L 31.598259673066337,85.00000000000004 L 62.49195891775186,85.00000000000001 L 62.49195891775186,82.00000000000001 L 65.49195891775184,81.99999999999996 L 65.49195891775183,84.99999999999993 L 92.50936736563283,84.99999999999999 L 92.50936736563283,81.99999999999999 L 95.50936736563284,82.00000000000001 L 95.50936736563285,84.99999999999999 L 120.31138979828002,84.99999999999999 L 120.31138979828006,82.00000000000001 L 123.31138979828005,82.00000000000001 L 123.31138979828003,84.99999999999999 L 178.34747724260666,84.99999999999999 L 178.3474772426066,68.66898651508448 L 175.3474772426066,68.66898651508448 L 175.3474772426066,65.66898651508448 L 178.3474772426066,65.66898651508448 L 178.3474772426066,42.886442183740755 L 175.3474772426066,42.886442183740755 L 175.3474772426066,39.886442183740755 L 178.3474772426066,39.886442183740755 M 123.56982025644915,64.56386595223698 L 122.80332506254094,63.80931725475723 L 122.14187570959956,62.961176126968766 L 121.59678977944225,62.03395449871728 L 121.17739384346034,61.04351738913648 L 120.89086388239706,60.006811451772464 L 120.74210250332726,58.94157501264259 L 120.7336550546913,57.86603456255975 L 120.86566607467742,56.79859289682102 L 121.13587681813326,55.75751423827798 L 121.53966390432174,54.76061173141977 L 122.07011842424726,53.82494265453225 L 122.71816415400407,52.966516564937635 L 123.47271285148386,52.200021371029436 L 124.3208539792723,51.53857201808805 L 125.24807560752379,50.99348608793069 L 126.23851271710456,50.574090151948866 L 127.2752186544686,50.28756019088556 L 128.34045509359848,50.13879881181576 L 129.41599554368128,50.130351363179784 L 130.48343720942,50.26236238316591 L 131.5245158679631,50.532573126621756 L 132.52141837482134,50.93636021281023 L 133.4570874517088,51.46681473273571 L 134.3155135413034,52.114860462492544 L 135.08200873521162,52.86940915997232 L 135.743458088153,53.71755028776076 L 136.28854401831035,54.644771916012274 L 136.70793995429221,55.635209025593014 L 136.99446991535552,56.671914962957075 L 137.1432312944253,57.73715140208695 L 137.15167874306127,58.81269185216978 L 137.01966772307517,59.880133517908504 L 136.7494569796193,60.92121217645156 L 136.34566989343085,61.91811468330981 L 135.81521537350534,62.85378376019726 L 135.1671696437485,63.712209849791904 L 134.4126209462687,64.47870504370009 L 133.56447981848027,65.1401543966415 L 132.63725819022878,65.68524032679882 L 131.646821080648,66.10463626278072 L 130.61011514328396,66.39116622384397 L 129.5448787041541,66.5399276029138 L 128.4693382540713,66.54837505154977 L 127.40189658833256,66.41636403156365 L 126.36081792978948,66.14615328810778 L 125.36391542293126,65.74236620191932 L 124.4282463460438,65.21191168199384 L 123.56982025644915,64.56386595223698 M 156.4904882643692,18.000000000000014 L 156.4904882643692,15.0 L 159.4904882643692,15.0 L 159.4904882643692,18.0 L 156.4904882643692,18.000000000000014 M 120.10311996747834,17.999999999999986 L 120.10311996747834,15.0 L 123.10311996747834,15.000000000000014 L 123.10311996747832,18.000000000000014 L 120.10311996747834,17.999999999999986 M 76.44904479907332,17.99999999999993 L 76.44904479907332,15.000000000000014 L 79.44904479907332,14.999999999999986 L 79.4490447990733,18.000000000000043 L 76.44904479907332,17.99999999999993 M 45.78749729249817,18.000000000000014 L 45.787497292498216,15.0 L 48.787497292498216,14.999999999999986 L 48.787497292498216,18.0 L 45.78749729249817,18.000000000000014 "
  />
</svg>
