<?xml version="1.0" standalone="no"?>
<!DOCTYPE svg PUBLIC "-//W3C//DTD SVG 1.1//EN" "http://www.w3.org/Graphics/SVG/1.1/DTD/svg11.dtd">
<svg width="56.999999999999986mm" height="54.00000000000008mm"
 viewBox="0 0 56.999999999999986 54.00000000000008"
 xmlns="http://www.w3.org/2000/svg" version="1.1"
 xmlns:xlink="http://www.w3.org/1999/xlink">
<desc>Output from Flights of Ideas SVG Sketchup Plugin</desc>

  <path id="face0-cut"
 style="fill:none;stroke:#0000FF;stroke-width:1;stroke-miterlimit:4;stroke-dasharray:none;stroke-linejoin:round;stroke-linecap:round"
        d="M 35.66666666666665,44.00000000000008 L 35.66666666666664,41.000000000000036 L 46.99999999999997,41.00000000000003 L 46.99999999999997,32.66666666666671 L 46.999999999999986,21.333333333333364 L 46.999999999999986,13.000000000000014 L 35.666666666666664,13.000000000000021 L 35.666666666666664,10.000000000000021 L 24.333333333333336,10.0 L 24.333333333333336,12.999999999999986 L 13.000000000000021,12.999999999999993 L 13.0,25.500000000000007 L 10.0,25.500000000000007 L 10.0,28.50000000000003 L 13.0,28.50000000000003 L 12.999999999999986,41.00000000000003 L 24.333333333333314,41.000000000000014 L 24.333333333333314,44.00000000000008 L 35.66666666666665,44.00000000000008 M 24.174961612819217,28.02186202859889 L 24.04888719863201,27.064231557961776 L 24.17496166990579,26.106601094840293 L 24.544593259771027,25.21423157273692 L 25.132592186223512,24.447936499872654 L 25.898887294139833,23.859937619100812 L 26.79125683827767,23.4903060824318 L 27.748887308914952,23.3642316682446 L 28.706517772036378,23.490306139518424 L 29.59888729413985,23.859937729383667 L 30.36518236700403,24.447936655836195 L 30.953181247775873,25.214231763752373 L 31.322812784444928,26.106601307890344 L 31.448887198631994,27.064231778527493 L 31.322812727358247,28.021862241649025 L 30.95318113749307,28.914231763752447 L 30.365182211040477,29.680526836616593 L 29.59888710312424,30.268525717388513 L 28.70651755898632,30.63815725405749 L 27.748887088349257,30.76423166824469 L 26.79125662522761,30.63815719697081 L 25.89888710312418,30.268525607105623 L 25.132592030260042,29.680526680653117 L 24.5445931494882,28.914231572736824 L 24.174961612819217,28.02186202859889 M 40.658584975530616,38.21450800991841 L 40.464395083610185,38.38897472106358 L 40.23166674421958,38.507236580791236 L 39.97626000908592,38.56123423879799 L 39.71558042512906,38.54728784392569 L 39.46739287520239,38.46634781993737 L 39.24861093068394,38.32393009570802 L 39.07414421953847,38.129740203787755 L 38.9558823598109,37.89701186439709 L 38.901884701804136,37.64160512926331 L 38.91583109667664,37.38092554530651 L 38.996771120665,37.13273799537983 L 39.139188844894306,36.9139560508614 L 39.33337873681438,36.739489339715725 L 39.5661070762052,36.62122747998818 L 39.82151381133896,36.56722982198163 L 40.08219339529586,36.581176216854 L 40.33038094522266,36.66211624084241 L 40.54916288974107,36.804533965071634 L 40.72362960088637,36.99872385699192 L 40.84189146061401,37.23145219638258 L 40.89588911862066,37.48685893151638 L 40.88194272374828,37.74753851547331 L 40.80100269975982,37.99572606539999 L 40.658584975530616,38.21450800991841 M 40.864813354716816,16.823051104283074 L 40.764912925023594,17.064232056202798 L 40.60599429625242,17.271338832652383 L 40.39888751032916,17.430257449077118 L 40.15770655245416,17.530157864393182 L 39.898887506336024,17.564232030389476 L 39.640068462249175,17.530157848964215 L 39.39888751032957,17.430257419271136 L 39.1917807338796,17.271338790500252 L 39.032862117454684,17.064232004577065 L 38.93296170213874,16.82305104670194 L 38.898887536141984,16.564232000583743 L 38.93296171756744,16.30541295649683 L 39.032862147260786,16.064232004577136 L 39.191780776031734,15.857125228127046 L 39.39888756195495,15.698206611702368 L 39.64006851983024,15.598306196386481 L 39.89888756594844,15.564232030389597 L 40.157706610035305,15.598306211814972 L 40.39888756195512,15.698206641508449 L 40.60599433840483,15.857125270279553 L 40.76491295482957,16.064232056202812 L 40.86481337014551,16.30541301407792 L 40.89888753614186,16.56423206019616 L 40.864813354716816,16.823051104283074 M 28.364912954829677,16.06423168660624 L 28.464813370145386,16.305412644481386 L 28.49888753614195,16.564231690599556 L 28.464813354716917,16.823050734686497 L 28.364912925023702,17.064231686606206 L 28.20599429625257,17.271338463056054 L 27.99888751032922,17.430257079480512 L 27.75770655245421,17.53015749479672 L 27.498887506336082,17.564231660793283 L 27.240068462249234,17.53015747936758 L 26.99888751032959,17.43025704967433 L 26.791780733879698,17.271338420903675 L 26.632862117454792,17.064231634980473 L 26.532961702138934,16.823050677105307 L 26.49888753614227,16.564231630987173 L 26.532961717567353,16.30541258690021 L 26.63286214726108,16.064231634980608 L 26.791780776031622,15.857124858530511 L 26.99888756195506,15.698206242105769 L 27.240068519830295,15.59830582678979 L 27.498887565948472,15.564231660793077 L 27.757706610035413,15.598305842218494 L 27.99888756195515,15.698206271911765 L 28.20599433840495,15.857124900682962 L 28.364912954829677,16.06423168660624 M 26.99888693602535,36.698206242105734 L 27.240067893900545,36.59830582678986 L 27.498886940018807,36.564231660792984 L 27.757705984105705,36.59830584221838 L 27.99888693602562,36.69820627191168 L 28.205993712475596,36.85712490068256 L 28.36491232889997,37.064231686606114 L 28.46481274421587,37.305412644481265 L 28.49888691021235,37.56423169059946 L 28.464812728787173,37.82305073468637 L 28.36491229909364,38.06423168660595 L 28.205993670322783,38.27133846305589 L 27.998886884399617,38.430257079480455 L 27.7577059265246,38.53015749479676 L 27.49888688040643,38.564231660793354 L 27.240067836319582,38.5301574793675 L 26.998886884400022,38.43025704967438 L 26.79178010794982,38.2713384209037 L 26.63286149152509,38.06423163498044 L 26.532961076209013,37.82305067710529 L 26.49888691021239,37.56423163098712 L 26.532961091637567,37.30541258690013 L 26.632861521331456,37.064231634980565 L 26.791780150102,36.85712485853047 L 26.99888693602535,36.698206242105734 "
  />
</svg>
